HIERARCHY
ROOT Hips
{
  OFFSET 0.0000 0.0000 0.0000
  CHANNELS 6 Xposition Yposition Zposition Zrotation Xrotation Yrotation
  JOINT LeftHip
  {
    OFFSET 5.5000 -0.0000 0.0000
    CHANNELS 3 Zrotation Xrotation Yrotation
    JOINT LeftKnee
    {
      OFFSET -0.0000 -17.5000 -0.0000
      CHANNELS 3 Zrotation Xrotation Yrotation
      JOINT LeftAnkle
      {
        OFFSET 0.0000 -17.0000 0.0000
        CHANNELS 3 Zrotation Xrotation Yrotation
        End Site
        {
            OFFSET 0.0000 -4.7000 -2.0000
        }
      }
    }
  }
  JOINT RightHip
  {
    OFFSET -5.5000 0.0000 0.0000
    CHANNELS 3 Zrotation Xrotation Yrotation
    JOINT RightKnee
    {
      OFFSET 0.0000 -17.5000 0.0000
      CHANNELS 3 Zrotation Xrotation Yrotation
      JOINT RightAnkle
      {
        OFFSET -0.0000 -17.0000 0.0000
        CHANNELS 3 Zrotation Xrotation Yrotation
        End Site
        {
            OFFSET 0.0000 -4.7000 -2.0000
        }
      }
    }
  }
  JOINT Chest
  {
    OFFSET 0.0000 3.0000 -1.0000
    CHANNELS 3 Zrotation Xrotation Yrotation
    JOINT LeftCollar
    {
      OFFSET 0.0000 18.0000 1.0000
      CHANNELS 3 Zrotation Xrotation Yrotation
      JOINT LeftShoulder
      {
        OFFSET 6.5000 0.0000 -0.0000
        CHANNELS 3 Zrotation Xrotation Yrotation
        JOINT LeftElbow
        {
          OFFSET 0.0000 -11.0000 0.0000
          CHANNELS 3 Zrotation Xrotation Yrotation
          JOINT LeftWrist
          {
            OFFSET 0.0000 -10.5000 0.0000
            CHANNELS 3 Zrotation Xrotation Yrotation
            End Site
            {
                OFFSET 0.0000 -6.0000 0.0000
            }
          }
        }
      }
    }
    JOINT RightCollar
    {
      OFFSET 0.0000 18.0000 1.0000
      CHANNELS 3 Zrotation Xrotation Yrotation
      JOINT RightShoulder
      {
        OFFSET -6.5000 -0.0000 0.0000
        CHANNELS 3 Zrotation Xrotation Yrotation
        JOINT RightElbow
        {
          OFFSET 0.0000 -11.0000 -0.0000
          CHANNELS 3 Zrotation Xrotation Yrotation
          JOINT RightWrist
          {
            OFFSET 0.0000 -10.5000 0.0000
            CHANNELS 3 Zrotation Xrotation Yrotation
            End Site
            {
                OFFSET -0.0000 -6.0000 -0.0000
            }
          }
        }
      }
    }
    JOINT Neck
    {
      OFFSET 0.0000 18.0000 1.0000
      CHANNELS 3 Zrotation Xrotation Yrotation
      JOINT Head
      {
        OFFSET 0.0000 3.0000 0.0000
        CHANNELS 3 Zrotation Xrotation Yrotation
        End Site
        {
            OFFSET -0.0000 7.0000 -0.0000
        }
      }
    }
  }
}
MOTION
Frames:	17
Frame Time:	0.033333
-0.4422 40.7584 -0.0578 0.20 -0.01 1.14 -2.68 -2.83 0.28 -0.00 11.93 -0.02 0.87 -5.87 -0.64 3.61 -2.99 0.26 -0.00 12.00 0.00 -1.47 -5.65 -0.15 0.07 0.72 -0.63 0.00 0.00 0.00 26.75 -39.42 -53.21 -180.00 -79.87 -174.82 -33.91 -6.84 53.99 0.00 0.00 0.00 -26.99 -27.48 31.71 -180.00 -69.11 174.96 39.37 0.45 -14.42 0.00 0.00 0.00 -0.15 -1.92 -1.73 
-0.4434 40.7583 -0.0560 0.20 -0.01 1.15 -2.68 -2.83 0.29 0.00 11.93 -0.02 0.87 -5.87 -0.65 3.61 -2.99 0.26 0.00 12.00 0.00 -1.48 -5.66 -0.15 0.06 0.67 -0.55 0.00 0.00 0.00 26.89 -39.66 -53.07 180.00 -79.81 -174.79 -34.10 -7.19 53.26 0.00 0.00 0.00 -27.18 -27.53 31.54 180.00 -69.27 174.97 39.47 -0.19 -15.42 0.00 0.00 0.00 -0.06 -2.02 -1.71 
-0.4447 40.7581 -0.0542 0.20 -0.00 1.15 -2.67 -2.83 0.29 -0.00 11.93 -0.02 0.86 -5.87 -0.66 3.62 -2.99 0.26 -0.00 12.00 0.00 -1.48 -5.66 -0.15 0.06 0.61 -0.47 0.00 0.00 0.00 27.03 -39.79 -52.97 180.00 -79.83 -174.73 -34.28 -7.62 52.50 0.00 0.00 0.00 -27.39 -27.59 31.39 -180.00 -69.43 174.98 39.56 -0.77 -16.77 0.00 0.00 0.00 -0.00 -2.07 -1.69 
-0.4459 40.7580 -0.0524 0.21 -0.00 1.15 -2.67 -2.83 0.30 0.00 11.93 -0.02 0.86 -5.87 -0.66 3.62 -2.99 0.26 -0.00 12.00 0.00 -1.48 -5.66 -0.16 0.05 0.53 -0.39 0.00 0.00 0.00 27.16 -39.83 -52.92 180.00 -79.91 -174.67 -34.42 -8.08 51.78 0.00 0.00 0.00 -27.57 -27.65 31.28 180.00 -69.56 174.97 39.43 -1.20 -18.10 0.00 0.00 0.00 0.01 -2.10 -1.67 
-0.4472 40.7579 -0.0507 0.21 0.00 1.15 -2.67 -2.82 0.30 0.00 11.93 -0.02 0.86 -5.88 -0.67 3.62 -2.99 0.26 0.00 12.00 0.00 -1.48 -5.67 -0.16 0.05 0.43 -0.31 0.00 0.00 0.00 27.27 -39.80 -52.90 180.00 -80.04 -174.61 -34.49 -8.54 51.18 0.00 0.00 0.00 -27.72 -27.70 31.20 -180.00 -69.63 174.94 39.25 -1.40 -19.09 0.00 0.00 0.00 -0.05 -2.10 -1.66 
-0.4486 40.7578 -0.0489 0.21 0.00 1.15 -2.66 -2.82 0.30 -0.00 11.93 -0.02 0.85 -5.88 -0.68 3.62 -2.98 0.26 -0.00 12.00 0.00 -1.48 -5.67 -0.16 0.05 0.31 -0.23 0.00 0.00 0.00 27.35 -39.71 -52.91 -180.00 -80.20 -174.55 -34.46 -8.96 50.78 0.00 0.00 0.00 -27.80 -27.71 31.14 -180.00 -69.62 174.91 39.12 -1.29 -19.79 0.00 0.00 0.00 -0.16 -2.09 -1.65 
-0.4500 40.7577 -0.0471 0.21 0.00 1.16 -2.66 -2.82 0.31 -0.00 11.93 -0.02 0.85 -5.88 -0.69 3.63 -2.98 0.26 0.00 12.00 0.00 -1.49 -5.67 -0.16 0.04 0.17 -0.15 0.00 0.00 0.00 27.38 -39.58 -52.96 180.00 -80.37 -174.50 -34.32 -9.29 50.67 0.00 0.00 0.00 -27.79 -27.69 31.10 180.00 -69.51 174.86 39.10 -0.82 -20.19 0.00 0.00 0.00 -0.29 -2.07 -1.65 
-0.4514 40.7575 -0.0453 0.21 0.01 1.16 -2.66 -2.82 0.31 -0.00 11.93 -0.02 0.85 -5.88 -0.70 3.63 -2.98 0.26 0.00 12.00 0.00 -1.49 -5.68 -0.16 0.04 0.00 -0.08 0.00 0.00 0.00 27.37 -39.45 -53.04 -180.00 -80.55 -174.46 -33.95 -9.40 51.42 0.00 0.00 0.00 -27.68 -27.67 31.08 -180.00 -69.31 174.81 39.19 -0.06 -20.28 0.00 0.00 0.00 -0.39 -2.05 -1.64 
-0.4529 40.7574 -0.0436 0.21 0.01 1.16 -2.66 -2.82 0.32 0.00 11.92 -0.02 0.84 -5.88 -0.70 3.63 -2.98 0.26 0.00 12.00 0.00 -1.49 -5.68 -0.16 0.04 -0.18 -0.01 0.00 0.00 0.00 27.31 -39.33 -53.13 180.00 -80.71 -174.43 -33.47 -9.19 52.91 0.00 0.00 0.00 -27.62 -27.66 31.05 -180.00 -69.07 174.81 39.32 0.77 -19.79 0.00 0.00 0.00 -0.42 -2.04 -1.64 
-0.4544 40.7573 -0.0418 0.21 0.01 1.16 -2.65 -2.82 0.32 0.00 11.92 -0.02 0.84 -5.89 -0.71 3.64 -2.98 0.26 0.00 12.00 0.00 -1.49 -5.69 -0.17 0.04 -0.39 0.04 0.00 0.00 0.00 27.19 -39.27 -53.22 -180.00 -80.85 -174.43 -33.14 -8.77 54.38 0.00 0.00 0.00 -27.67 -27.70 31.01 -180.00 -68.81 174.85 39.41 1.52 -18.62 0.00 0.00 0.00 -0.33 -2.03 -1.63 
-0.4559 40.7572 -0.0401 0.21 0.01 1.16 -2.65 -2.82 0.32 -0.00 11.92 -0.02 0.83 -5.89 -0.72 3.64 -2.98 0.26 0.00 12.00 0.00 -1.50 -5.69 -0.17 0.04 -0.59 0.09 0.00 0.00 0.00 27.03 -39.30 -53.28 180.00 -80.96 -174.45 -33.09 -8.33 55.08 0.00 0.00 0.00 -27.81 -27.80 30.98 -180.00 -68.54 174.90 39.42 2.04 -17.20 0.00 0.00 0.00 -0.08 -2.01 -1.61 
-0.4575 40.7571 -0.0383 0.21 0.01 1.16 -2.65 -2.82 0.33 -0.00 11.92 -0.02 0.83 -5.89 -0.73 3.64 -2.98 0.26 -0.00 12.00 0.00 -1.50 -5.69 -0.17 0.04 -0.78 0.12 0.00 0.00 0.00 26.90 -39.39 -53.26 180.00 -81.04 -174.50 -33.23 -7.94 55.30 0.00 0.00 0.00 -28.00 -27.98 30.95 -180.00 -68.29 174.96 39.37 2.21 -16.11 0.00 0.00 0.00 0.25 -1.98 -1.58 
-0.4591 40.7569 -0.0366 0.21 0.01 1.17 -2.64 -2.82 0.33 -0.00 11.92 -0.02 0.83 -5.89 -0.73 3.65 -2.97 0.26 -0.00 12.00 0.00 -1.50 -5.70 -0.17 0.04 -0.96 0.14 0.00 0.00 0.00 26.79 -39.51 -53.20 180.00 -81.10 -174.54 -33.33 -7.76 55.25 0.00 0.00 0.00 -28.21 -28.23 30.91 -180.00 -68.10 175.00 39.31 2.10 -15.48 0.00 0.00 0.00 0.52 -1.96 -1.57 
-0.4607 40.7568 -0.0348 0.21 0.02 1.17 -2.64 -2.82 0.34 0.00 11.92 -0.02 0.82 -5.89 -0.74 3.65 -2.97 0.26 0.00 12.00 0.00 -1.50 -5.70 -0.17 0.05 -1.12 0.14 0.00 0.00 0.00 26.70 -39.63 -53.14 -180.00 -81.10 -174.55 -33.37 -7.82 55.05 0.00 0.00 0.00 -28.45 -28.47 30.85 -180.00 -68.02 175.04 39.26 1.73 -15.12 0.00 0.00 0.00 0.67 -1.96 -1.56 
-0.4624 40.7567 -0.0331 0.21 0.02 1.17 -2.64 -2.82 0.34 0.00 11.92 -0.02 0.82 -5.90 -0.75 3.65 -2.97 0.26 0.00 12.00 0.00 -1.51 -5.70 -0.17 0.05 -1.26 0.14 0.00 0.00 0.00 26.62 -39.72 -53.10 -180.00 -81.05 -174.56 -33.40 -8.03 54.77 0.00 0.00 0.00 -28.68 -28.67 30.78 -180.00 -68.04 175.04 39.24 1.21 -14.82 0.00 0.00 0.00 0.72 -1.98 -1.56 
-0.4641 40.7566 -0.0314 0.21 0.02 1.17 -2.63 -2.82 0.34 0.00 11.92 -0.02 0.82 -5.90 -0.76 3.66 -2.97 0.26 -0.00 12.00 0.00 -1.51 -5.70 -0.18 0.05 -1.38 0.14 0.00 0.00 0.00 26.57 -39.77 -53.08 180.00 -80.96 -174.56 -33.56 -8.22 54.40 0.00 0.00 0.00 -28.86 -28.81 30.72 180.00 -68.14 175.01 39.26 0.63 -14.67 0.00 0.00 0.00 0.67 -2.04 -1.56 
-0.4659 40.7564 -0.0297 0.21 0.02 1.17 -2.63 -2.82 0.35 -0.00 11.92 -0.02 0.81 -5.90 -0.76 3.66 -2.97 0.26 0.00 12.00 0.00 -1.51 -5.71 -0.18 0.05 -1.49 0.14 0.00 0.00 0.00 26.53 -39.80 -53.08 -180.00 -80.90 -174.55 -33.95 -8.28 53.93 0.00 0.00 0.00 -28.92 -28.88 30.69 180.00 -68.31 174.96 39.34 0.09 -14.95 0.00 0.00 0.00 0.55 -2.13 -1.57 
